<mxfile host="app.diagrams.net" modified="2022-04-18T20:35:37.914Z" agent="5.0 (Windows NT 10.0; Win64; x64) AppleWebKit/537.36 (KHTML, like Gecko) Chrome/100.0.4896.127 Safari/537.36" etag="1iECwHymuKaKAk7O9oVn" version="17.4.5" type="github">
  <diagram id="C5RBs43oDa-KdzZeNtuy" name="Page-1">
    <mxGraphModel dx="782" dy="507" grid="1" gridSize="10" guides="1" tooltips="1" connect="1" arrows="1" fold="1" page="1" pageScale="1" pageWidth="827" pageHeight="1169" math="0" shadow="0">
      <root>
        <mxCell id="WIyWlLk6GJQsqaUBKTNV-0" />
        <mxCell id="WIyWlLk6GJQsqaUBKTNV-1" parent="WIyWlLk6GJQsqaUBKTNV-0" />
        <mxCell id="zTwVsRxfHrBuKLWU-dyP-2" value="" style="edgeStyle=orthogonalEdgeStyle;rounded=0;orthogonalLoop=1;jettySize=auto;html=1;" edge="1" parent="WIyWlLk6GJQsqaUBKTNV-1" source="WIyWlLk6GJQsqaUBKTNV-3" target="zTwVsRxfHrBuKLWU-dyP-1">
          <mxGeometry relative="1" as="geometry" />
        </mxCell>
        <mxCell id="WIyWlLk6GJQsqaUBKTNV-3" value="User selects&lt;br&gt;coffee type" style="rounded=1;whiteSpace=wrap;html=1;fontSize=12;glass=0;strokeWidth=1;shadow=0;" parent="WIyWlLk6GJQsqaUBKTNV-1" vertex="1">
          <mxGeometry x="308" y="81" width="120" height="40" as="geometry" />
        </mxCell>
        <mxCell id="WIyWlLk6GJQsqaUBKTNV-11" value="User collects&lt;br&gt;coffee" style="rounded=1;whiteSpace=wrap;html=1;fontSize=12;glass=0;strokeWidth=1;shadow=0;" parent="WIyWlLk6GJQsqaUBKTNV-1" vertex="1">
          <mxGeometry x="308" y="460" width="120" height="40" as="geometry" />
        </mxCell>
        <mxCell id="zTwVsRxfHrBuKLWU-dyP-4" value="" style="edgeStyle=orthogonalEdgeStyle;rounded=0;orthogonalLoop=1;jettySize=auto;html=1;" edge="1" parent="WIyWlLk6GJQsqaUBKTNV-1" source="zTwVsRxfHrBuKLWU-dyP-1">
          <mxGeometry relative="1" as="geometry">
            <mxPoint x="368" y="241" as="targetPoint" />
          </mxGeometry>
        </mxCell>
        <mxCell id="zTwVsRxfHrBuKLWU-dyP-7" value="" style="edgeStyle=orthogonalEdgeStyle;rounded=0;orthogonalLoop=1;jettySize=auto;html=1;" edge="1" parent="WIyWlLk6GJQsqaUBKTNV-1" source="zTwVsRxfHrBuKLWU-dyP-1">
          <mxGeometry relative="1" as="geometry">
            <mxPoint x="468" y="181" as="targetPoint" />
          </mxGeometry>
        </mxCell>
        <mxCell id="zTwVsRxfHrBuKLWU-dyP-10" value="" style="edgeStyle=orthogonalEdgeStyle;rounded=0;orthogonalLoop=1;jettySize=auto;html=1;" edge="1" parent="WIyWlLk6GJQsqaUBKTNV-1" source="zTwVsRxfHrBuKLWU-dyP-1">
          <mxGeometry relative="1" as="geometry">
            <mxPoint x="268" y="181" as="targetPoint" />
          </mxGeometry>
        </mxCell>
        <mxCell id="zTwVsRxfHrBuKLWU-dyP-1" value="Read user &lt;br&gt;selection" style="shape=parallelogram;perimeter=parallelogramPerimeter;whiteSpace=wrap;html=1;fixedSize=1;rounded=1;glass=0;strokeWidth=1;shadow=0;arcSize=0;" vertex="1" parent="WIyWlLk6GJQsqaUBKTNV-1">
          <mxGeometry x="308" y="151" width="120" height="60" as="geometry" />
        </mxCell>
        <mxCell id="zTwVsRxfHrBuKLWU-dyP-18" value="" style="edgeStyle=orthogonalEdgeStyle;rounded=0;orthogonalLoop=1;jettySize=auto;html=1;" edge="1" parent="WIyWlLk6GJQsqaUBKTNV-1" source="zTwVsRxfHrBuKLWU-dyP-5" target="zTwVsRxfHrBuKLWU-dyP-17">
          <mxGeometry relative="1" as="geometry" />
        </mxCell>
        <mxCell id="zTwVsRxfHrBuKLWU-dyP-5" value="Espresso" style="rhombus;whiteSpace=wrap;html=1;shadow=0;fontFamily=Helvetica;fontSize=12;align=center;strokeWidth=1;spacing=6;spacingTop=-4;" vertex="1" parent="WIyWlLk6GJQsqaUBKTNV-1">
          <mxGeometry x="318" y="241" width="100" height="80" as="geometry" />
        </mxCell>
        <mxCell id="zTwVsRxfHrBuKLWU-dyP-20" value="" style="edgeStyle=orthogonalEdgeStyle;rounded=0;orthogonalLoop=1;jettySize=auto;html=1;" edge="1" parent="WIyWlLk6GJQsqaUBKTNV-1" source="zTwVsRxfHrBuKLWU-dyP-8" target="zTwVsRxfHrBuKLWU-dyP-19">
          <mxGeometry relative="1" as="geometry" />
        </mxCell>
        <mxCell id="zTwVsRxfHrBuKLWU-dyP-8" value="Latte" style="rhombus;whiteSpace=wrap;html=1;shadow=0;fontFamily=Helvetica;fontSize=12;align=center;strokeWidth=1;spacing=6;spacingTop=-4;" vertex="1" parent="WIyWlLk6GJQsqaUBKTNV-1">
          <mxGeometry x="468" y="141" width="100" height="80" as="geometry" />
        </mxCell>
        <mxCell id="zTwVsRxfHrBuKLWU-dyP-13" value="" style="edgeStyle=orthogonalEdgeStyle;rounded=0;orthogonalLoop=1;jettySize=auto;html=1;" edge="1" parent="WIyWlLk6GJQsqaUBKTNV-1" source="zTwVsRxfHrBuKLWU-dyP-11" target="zTwVsRxfHrBuKLWU-dyP-12">
          <mxGeometry relative="1" as="geometry" />
        </mxCell>
        <mxCell id="zTwVsRxfHrBuKLWU-dyP-11" value="Mocha" style="rhombus;whiteSpace=wrap;html=1;shadow=0;fontFamily=Helvetica;fontSize=12;align=center;strokeWidth=1;spacing=6;spacingTop=-4;" vertex="1" parent="WIyWlLk6GJQsqaUBKTNV-1">
          <mxGeometry x="168" y="141" width="100" height="80" as="geometry" />
        </mxCell>
        <mxCell id="zTwVsRxfHrBuKLWU-dyP-12" value="Machine serves&lt;br&gt;mocha" style="shape=parallelogram;perimeter=parallelogramPerimeter;whiteSpace=wrap;html=1;fixedSize=1;shadow=0;strokeWidth=1;spacing=6;spacingTop=-4;" vertex="1" parent="WIyWlLk6GJQsqaUBKTNV-1">
          <mxGeometry x="158" y="311" width="120" height="60" as="geometry" />
        </mxCell>
        <mxCell id="zTwVsRxfHrBuKLWU-dyP-22" value="" style="edgeStyle=orthogonalEdgeStyle;rounded=0;orthogonalLoop=1;jettySize=auto;html=1;" edge="1" parent="WIyWlLk6GJQsqaUBKTNV-1" source="zTwVsRxfHrBuKLWU-dyP-17" target="WIyWlLk6GJQsqaUBKTNV-11">
          <mxGeometry relative="1" as="geometry" />
        </mxCell>
        <mxCell id="zTwVsRxfHrBuKLWU-dyP-17" value="Machine servers&lt;br&gt;espresso" style="shape=parallelogram;perimeter=parallelogramPerimeter;whiteSpace=wrap;html=1;fixedSize=1;shadow=0;strokeWidth=1;spacing=6;spacingTop=-4;rotation=0;" vertex="1" parent="WIyWlLk6GJQsqaUBKTNV-1">
          <mxGeometry x="308" y="350" width="120" height="60" as="geometry" />
        </mxCell>
        <mxCell id="zTwVsRxfHrBuKLWU-dyP-25" style="edgeStyle=orthogonalEdgeStyle;rounded=0;orthogonalLoop=1;jettySize=auto;html=1;entryX=1;entryY=0.5;entryDx=0;entryDy=0;exitX=0.5;exitY=1;exitDx=0;exitDy=0;" edge="1" parent="WIyWlLk6GJQsqaUBKTNV-1" source="zTwVsRxfHrBuKLWU-dyP-19" target="WIyWlLk6GJQsqaUBKTNV-11">
          <mxGeometry relative="1" as="geometry" />
        </mxCell>
        <mxCell id="zTwVsRxfHrBuKLWU-dyP-19" value="Machine serves&lt;br&gt;latte" style="shape=parallelogram;perimeter=parallelogramPerimeter;whiteSpace=wrap;html=1;fixedSize=1;shadow=0;strokeWidth=1;spacing=6;spacingTop=-4;" vertex="1" parent="WIyWlLk6GJQsqaUBKTNV-1">
          <mxGeometry x="458" y="311" width="120" height="60" as="geometry" />
        </mxCell>
        <mxCell id="zTwVsRxfHrBuKLWU-dyP-24" style="edgeStyle=orthogonalEdgeStyle;rounded=0;orthogonalLoop=1;jettySize=auto;html=1;entryX=0;entryY=0.5;entryDx=0;entryDy=0;exitX=0.5;exitY=1;exitDx=0;exitDy=0;" edge="1" parent="WIyWlLk6GJQsqaUBKTNV-1" source="zTwVsRxfHrBuKLWU-dyP-12">
          <mxGeometry relative="1" as="geometry">
            <mxPoint x="308" y="480" as="targetPoint" />
            <mxPoint x="268" y="341" as="sourcePoint" />
            <Array as="points">
              <mxPoint x="218" y="480" />
            </Array>
          </mxGeometry>
        </mxCell>
      </root>
    </mxGraphModel>
  </diagram>
</mxfile>
